<mxfile host="app.diagrams.net" agent="Mozilla/5.0 (Windows NT 10.0; Win64; x64) AppleWebKit/537.36 (KHTML, like Gecko) Chrome/134.0.0.0 YaBrowser/25.4.0.0 Safari/537.36" version="27.1.5">
  <diagram name="Страница — 1" id="X0ul-__qULuEmitgi-Vp">
    <mxGraphModel dx="2084" dy="1238" grid="1" gridSize="10" guides="1" tooltips="1" connect="1" arrows="1" fold="1" page="1" pageScale="1" pageWidth="827" pageHeight="1169" math="0" shadow="0">
      <root>
        <mxCell id="0" />
        <mxCell id="1" parent="0" />
        <mxCell id="ZmuYm-Em29mLAAki2HnM-14" value="Жанр" style="swimlane;fontStyle=0;childLayout=stackLayout;horizontal=1;startSize=26;horizontalStack=0;resizeParent=1;resizeParentMax=0;resizeLast=0;collapsible=1;marginBottom=0;align=center;fontSize=14;" vertex="1" parent="1">
          <mxGeometry x="60" y="120" width="160" height="86" as="geometry" />
        </mxCell>
        <mxCell id="ZmuYm-Em29mLAAki2HnM-15" value="&lt;b&gt;id: serial&lt;/b&gt;" style="text;strokeColor=none;fillColor=none;spacingLeft=4;spacingRight=4;overflow=hidden;rotatable=0;points=[[0,0.5],[1,0.5]];portConstraint=eastwest;fontSize=12;whiteSpace=wrap;html=1;" vertex="1" parent="ZmuYm-Em29mLAAki2HnM-14">
          <mxGeometry y="26" width="160" height="30" as="geometry" />
        </mxCell>
        <mxCell id="ZmuYm-Em29mLAAki2HnM-16" value="name: varchar(50)" style="text;strokeColor=none;fillColor=none;spacingLeft=4;spacingRight=4;overflow=hidden;rotatable=0;points=[[0,0.5],[1,0.5]];portConstraint=eastwest;fontSize=12;whiteSpace=wrap;html=1;" vertex="1" parent="ZmuYm-Em29mLAAki2HnM-14">
          <mxGeometry y="56" width="160" height="30" as="geometry" />
        </mxCell>
        <mxCell id="ZmuYm-Em29mLAAki2HnM-39" value="Исполнитель" style="swimlane;fontStyle=0;childLayout=stackLayout;horizontal=1;startSize=26;horizontalStack=0;resizeParent=1;resizeParentMax=0;resizeLast=0;collapsible=1;marginBottom=0;align=center;fontSize=14;" vertex="1" parent="1">
          <mxGeometry x="500" y="120" width="160" height="86" as="geometry" />
        </mxCell>
        <mxCell id="ZmuYm-Em29mLAAki2HnM-40" value="&lt;b&gt;id: serial&lt;/b&gt;" style="text;strokeColor=none;fillColor=none;spacingLeft=4;spacingRight=4;overflow=hidden;rotatable=0;points=[[0,0.5],[1,0.5]];portConstraint=eastwest;fontSize=12;whiteSpace=wrap;html=1;" vertex="1" parent="ZmuYm-Em29mLAAki2HnM-39">
          <mxGeometry y="26" width="160" height="30" as="geometry" />
        </mxCell>
        <mxCell id="ZmuYm-Em29mLAAki2HnM-41" value="name: varchar(50)" style="text;strokeColor=none;fillColor=none;spacingLeft=4;spacingRight=4;overflow=hidden;rotatable=0;points=[[0,0.5],[1,0.5]];portConstraint=eastwest;fontSize=12;whiteSpace=wrap;html=1;" vertex="1" parent="ZmuYm-Em29mLAAki2HnM-39">
          <mxGeometry y="56" width="160" height="30" as="geometry" />
        </mxCell>
        <mxCell id="ZmuYm-Em29mLAAki2HnM-47" value="ЖанрИсполнитель" style="swimlane;fontStyle=0;childLayout=stackLayout;horizontal=1;startSize=26;horizontalStack=0;resizeParent=1;resizeParentMax=0;resizeLast=0;collapsible=1;marginBottom=0;align=center;fontSize=14;" vertex="1" parent="1">
          <mxGeometry x="280" y="120" width="160" height="86" as="geometry" />
        </mxCell>
        <mxCell id="ZmuYm-Em29mLAAki2HnM-48" value="&lt;b&gt;жанр_id: integer&lt;/b&gt;" style="text;strokeColor=none;fillColor=none;spacingLeft=4;spacingRight=4;overflow=hidden;rotatable=0;points=[[0,0.5],[1,0.5]];portConstraint=eastwest;fontSize=12;whiteSpace=wrap;html=1;" vertex="1" parent="ZmuYm-Em29mLAAki2HnM-47">
          <mxGeometry y="26" width="160" height="30" as="geometry" />
        </mxCell>
        <mxCell id="ZmuYm-Em29mLAAki2HnM-49" value="&lt;b&gt;исп-ль_id: integer&lt;/b&gt;" style="text;strokeColor=none;fillColor=none;spacingLeft=4;spacingRight=4;overflow=hidden;rotatable=0;points=[[0,0.5],[1,0.5]];portConstraint=eastwest;fontSize=12;whiteSpace=wrap;html=1;" vertex="1" parent="ZmuYm-Em29mLAAki2HnM-47">
          <mxGeometry y="56" width="160" height="30" as="geometry" />
        </mxCell>
        <mxCell id="ZmuYm-Em29mLAAki2HnM-51" style="edgeStyle=orthogonalEdgeStyle;rounded=0;orthogonalLoop=1;jettySize=auto;html=1;exitX=0;exitY=0;exitDx=0;exitDy=0;exitPerimeter=0;" edge="1" parent="1" source="ZmuYm-Em29mLAAki2HnM-49">
          <mxGeometry relative="1" as="geometry">
            <mxPoint x="220" y="176" as="targetPoint" />
            <mxPoint x="270" y="176" as="sourcePoint" />
            <Array as="points">
              <mxPoint x="240" y="176" />
              <mxPoint x="240" y="176" />
            </Array>
          </mxGeometry>
        </mxCell>
        <mxCell id="ZmuYm-Em29mLAAki2HnM-52" value="1&lt;span style=&quot;white-space: pre;&quot;&gt;&#x9;&lt;/span&gt;&lt;span style=&quot;white-space: pre;&quot;&gt;&#x9;&lt;/span&gt;*" style="edgeLabel;html=1;align=center;verticalAlign=middle;resizable=0;points=[];" vertex="1" connectable="0" parent="ZmuYm-Em29mLAAki2HnM-51">
          <mxGeometry x="-0.7294" y="1" relative="1" as="geometry">
            <mxPoint x="-22" y="-14" as="offset" />
          </mxGeometry>
        </mxCell>
        <mxCell id="ZmuYm-Em29mLAAki2HnM-54" style="edgeStyle=orthogonalEdgeStyle;rounded=0;orthogonalLoop=1;jettySize=auto;html=1;entryX=0;entryY=0.5;entryDx=0;entryDy=0;" edge="1" parent="1">
          <mxGeometry relative="1" as="geometry">
            <mxPoint x="440" y="180" as="sourcePoint" />
            <mxPoint x="500" y="180" as="targetPoint" />
          </mxGeometry>
        </mxCell>
        <mxCell id="ZmuYm-Em29mLAAki2HnM-55" value="*&lt;span style=&quot;white-space: pre;&quot;&gt;&#x9;&lt;/span&gt;&lt;span style=&quot;white-space: pre;&quot;&gt;&#x9;&lt;/span&gt;1" style="edgeLabel;html=1;align=center;verticalAlign=middle;resizable=0;points=[];" vertex="1" connectable="0" parent="ZmuYm-Em29mLAAki2HnM-54">
          <mxGeometry x="0.0771" relative="1" as="geometry">
            <mxPoint x="-3" y="-17" as="offset" />
          </mxGeometry>
        </mxCell>
        <mxCell id="ZmuYm-Em29mLAAki2HnM-56" value="Альбом" style="swimlane;fontStyle=0;childLayout=stackLayout;horizontal=1;startSize=26;horizontalStack=0;resizeParent=1;resizeParentMax=0;resizeLast=0;collapsible=1;marginBottom=0;align=center;fontSize=14;" vertex="1" parent="1">
          <mxGeometry x="940" y="105" width="160" height="116" as="geometry" />
        </mxCell>
        <mxCell id="ZmuYm-Em29mLAAki2HnM-57" value="&lt;b&gt;id: serial&lt;/b&gt;" style="text;strokeColor=none;fillColor=none;spacingLeft=4;spacingRight=4;overflow=hidden;rotatable=0;points=[[0,0.5],[1,0.5]];portConstraint=eastwest;fontSize=12;whiteSpace=wrap;html=1;" vertex="1" parent="ZmuYm-Em29mLAAki2HnM-56">
          <mxGeometry y="26" width="160" height="30" as="geometry" />
        </mxCell>
        <mxCell id="ZmuYm-Em29mLAAki2HnM-58" value="name: varchar(50)" style="text;strokeColor=none;fillColor=none;spacingLeft=4;spacingRight=4;overflow=hidden;rotatable=0;points=[[0,0.5],[1,0.5]];portConstraint=eastwest;fontSize=12;whiteSpace=wrap;html=1;" vertex="1" parent="ZmuYm-Em29mLAAki2HnM-56">
          <mxGeometry y="56" width="160" height="30" as="geometry" />
        </mxCell>
        <mxCell id="ZmuYm-Em29mLAAki2HnM-66" style="edgeStyle=orthogonalEdgeStyle;rounded=0;orthogonalLoop=1;jettySize=auto;html=1;entryX=-0.017;entryY=0.089;entryDx=0;entryDy=0;entryPerimeter=0;exitX=0.997;exitY=0.152;exitDx=0;exitDy=0;exitPerimeter=0;" edge="1" parent="ZmuYm-Em29mLAAki2HnM-56" source="ZmuYm-Em29mLAAki2HnM-62">
          <mxGeometry relative="1" as="geometry">
            <mxPoint x="-57.2800000000002" y="75" as="sourcePoint" />
            <mxPoint y="75.66999999999996" as="targetPoint" />
          </mxGeometry>
        </mxCell>
        <mxCell id="ZmuYm-Em29mLAAki2HnM-74" value="*&lt;span style=&quot;white-space: pre;&quot;&gt;&#x9;&lt;/span&gt;&lt;span style=&quot;white-space: pre;&quot;&gt;&#x9;&lt;/span&gt;1" style="edgeLabel;html=1;align=center;verticalAlign=middle;resizable=0;points=[];" vertex="1" connectable="0" parent="ZmuYm-Em29mLAAki2HnM-66">
          <mxGeometry x="0.2423" y="-1" relative="1" as="geometry">
            <mxPoint x="-7" y="-19" as="offset" />
          </mxGeometry>
        </mxCell>
        <mxCell id="ZmuYm-Em29mLAAki2HnM-59" value="year: integer" style="text;strokeColor=none;fillColor=none;spacingLeft=4;spacingRight=4;overflow=hidden;rotatable=0;points=[[0,0.5],[1,0.5]];portConstraint=eastwest;fontSize=12;whiteSpace=wrap;html=1;" vertex="1" parent="ZmuYm-Em29mLAAki2HnM-56">
          <mxGeometry y="86" width="160" height="30" as="geometry" />
        </mxCell>
        <mxCell id="ZmuYm-Em29mLAAki2HnM-69" style="edgeStyle=orthogonalEdgeStyle;rounded=0;orthogonalLoop=1;jettySize=auto;html=1;entryX=1;entryY=0.581;entryDx=0;entryDy=0;entryPerimeter=0;" edge="1" parent="1">
          <mxGeometry relative="1" as="geometry">
            <mxPoint x="660" y="180.43000000000006" as="targetPoint" />
            <mxPoint x="719.9999999999998" y="180" as="sourcePoint" />
          </mxGeometry>
        </mxCell>
        <mxCell id="ZmuYm-Em29mLAAki2HnM-73" value="1&lt;span style=&quot;white-space: pre;&quot;&gt;&#x9;&lt;/span&gt;&lt;span style=&quot;white-space: pre;&quot;&gt;&#x9;&lt;/span&gt;*" style="edgeLabel;html=1;align=center;verticalAlign=middle;resizable=0;points=[];" vertex="1" connectable="0" parent="ZmuYm-Em29mLAAki2HnM-69">
          <mxGeometry x="-0.2726" relative="1" as="geometry">
            <mxPoint x="-8" y="-17" as="offset" />
          </mxGeometry>
        </mxCell>
        <mxCell id="ZmuYm-Em29mLAAki2HnM-60" value="ИсполнительАльбом" style="swimlane;fontStyle=0;childLayout=stackLayout;horizontal=1;startSize=26;horizontalStack=0;resizeParent=1;resizeParentMax=0;resizeLast=0;collapsible=1;marginBottom=0;align=center;fontSize=14;" vertex="1" parent="1">
          <mxGeometry x="720" y="120" width="160" height="86" as="geometry" />
        </mxCell>
        <mxCell id="ZmuYm-Em29mLAAki2HnM-61" value="&lt;b&gt;исп-ль_id: integer&lt;/b&gt;" style="text;strokeColor=none;fillColor=none;spacingLeft=4;spacingRight=4;overflow=hidden;rotatable=0;points=[[0,0.5],[1,0.5]];portConstraint=eastwest;fontSize=12;whiteSpace=wrap;html=1;" vertex="1" parent="ZmuYm-Em29mLAAki2HnM-60">
          <mxGeometry y="26" width="160" height="30" as="geometry" />
        </mxCell>
        <mxCell id="ZmuYm-Em29mLAAki2HnM-62" value="&lt;b&gt;альбом_id: integer&lt;/b&gt;" style="text;strokeColor=none;fillColor=none;spacingLeft=4;spacingRight=4;overflow=hidden;rotatable=0;points=[[0,0.5],[1,0.5]];portConstraint=eastwest;fontSize=12;whiteSpace=wrap;html=1;" vertex="1" parent="ZmuYm-Em29mLAAki2HnM-60">
          <mxGeometry y="56" width="160" height="30" as="geometry" />
        </mxCell>
        <mxCell id="ZmuYm-Em29mLAAki2HnM-75" value="Трек" style="swimlane;fontStyle=0;childLayout=stackLayout;horizontal=1;startSize=26;horizontalStack=0;resizeParent=1;resizeParentMax=0;resizeLast=0;collapsible=1;marginBottom=0;align=center;fontSize=14;" vertex="1" parent="1">
          <mxGeometry x="1210" y="105" width="160" height="146" as="geometry" />
        </mxCell>
        <mxCell id="ZmuYm-Em29mLAAki2HnM-76" value="&lt;b&gt;id: serial&lt;/b&gt;" style="text;strokeColor=none;fillColor=none;spacingLeft=4;spacingRight=4;overflow=hidden;rotatable=0;points=[[0,0.5],[1,0.5]];portConstraint=eastwest;fontSize=12;whiteSpace=wrap;html=1;" vertex="1" parent="ZmuYm-Em29mLAAki2HnM-75">
          <mxGeometry y="26" width="160" height="30" as="geometry" />
        </mxCell>
        <mxCell id="ZmuYm-Em29mLAAki2HnM-77" value="album_id: integer" style="text;strokeColor=none;fillColor=none;spacingLeft=4;spacingRight=4;overflow=hidden;rotatable=0;points=[[0,0.5],[1,0.5]];portConstraint=eastwest;fontSize=12;whiteSpace=wrap;html=1;" vertex="1" parent="ZmuYm-Em29mLAAki2HnM-75">
          <mxGeometry y="56" width="160" height="30" as="geometry" />
        </mxCell>
        <mxCell id="ZmuYm-Em29mLAAki2HnM-79" value="name: varchar(50)" style="text;strokeColor=none;fillColor=none;spacingLeft=4;spacingRight=4;overflow=hidden;rotatable=0;points=[[0,0.5],[1,0.5]];portConstraint=eastwest;fontSize=12;whiteSpace=wrap;html=1;" vertex="1" parent="ZmuYm-Em29mLAAki2HnM-75">
          <mxGeometry y="86" width="160" height="30" as="geometry" />
        </mxCell>
        <mxCell id="ZmuYm-Em29mLAAki2HnM-80" value="duration: integer&amp;nbsp;" style="text;strokeColor=none;fillColor=none;spacingLeft=4;spacingRight=4;overflow=hidden;rotatable=0;points=[[0,0.5],[1,0.5]];portConstraint=eastwest;fontSize=12;whiteSpace=wrap;html=1;" vertex="1" parent="ZmuYm-Em29mLAAki2HnM-75">
          <mxGeometry y="116" width="160" height="30" as="geometry" />
        </mxCell>
        <mxCell id="ZmuYm-Em29mLAAki2HnM-83" value="Сборник" style="swimlane;fontStyle=0;childLayout=stackLayout;horizontal=1;startSize=26;horizontalStack=0;resizeParent=1;resizeParentMax=0;resizeLast=0;collapsible=1;marginBottom=0;align=center;fontSize=14;" vertex="1" parent="1">
          <mxGeometry x="940" y="300" width="160" height="146" as="geometry" />
        </mxCell>
        <mxCell id="ZmuYm-Em29mLAAki2HnM-84" value="&lt;b&gt;id: serial&lt;/b&gt;" style="text;strokeColor=none;fillColor=none;spacingLeft=4;spacingRight=4;overflow=hidden;rotatable=0;points=[[0,0.5],[1,0.5]];portConstraint=eastwest;fontSize=12;whiteSpace=wrap;html=1;" vertex="1" parent="ZmuYm-Em29mLAAki2HnM-83">
          <mxGeometry y="26" width="160" height="30" as="geometry" />
        </mxCell>
        <mxCell id="ZmuYm-Em29mLAAki2HnM-88" value="track_id: integer" style="text;strokeColor=none;fillColor=none;spacingLeft=4;spacingRight=4;overflow=hidden;rotatable=0;points=[[0,0.5],[1,0.5]];portConstraint=eastwest;fontSize=12;whiteSpace=wrap;html=1;" vertex="1" parent="ZmuYm-Em29mLAAki2HnM-83">
          <mxGeometry y="56" width="160" height="30" as="geometry" />
        </mxCell>
        <mxCell id="ZmuYm-Em29mLAAki2HnM-85" value="name: varchar(50)" style="text;strokeColor=none;fillColor=none;spacingLeft=4;spacingRight=4;overflow=hidden;rotatable=0;points=[[0,0.5],[1,0.5]];portConstraint=eastwest;fontSize=12;whiteSpace=wrap;html=1;" vertex="1" parent="ZmuYm-Em29mLAAki2HnM-83">
          <mxGeometry y="86" width="160" height="30" as="geometry" />
        </mxCell>
        <mxCell id="ZmuYm-Em29mLAAki2HnM-86" value="year: integer" style="text;strokeColor=none;fillColor=none;spacingLeft=4;spacingRight=4;overflow=hidden;rotatable=0;points=[[0,0.5],[1,0.5]];portConstraint=eastwest;fontSize=12;whiteSpace=wrap;html=1;" vertex="1" parent="ZmuYm-Em29mLAAki2HnM-83">
          <mxGeometry y="116" width="160" height="30" as="geometry" />
        </mxCell>
        <mxCell id="ZmuYm-Em29mLAAki2HnM-81" style="edgeStyle=orthogonalEdgeStyle;rounded=0;orthogonalLoop=1;jettySize=auto;html=1;exitX=0;exitY=0.5;exitDx=0;exitDy=0;entryX=1;entryY=0.5;entryDx=0;entryDy=0;" edge="1" parent="1" source="ZmuYm-Em29mLAAki2HnM-77" target="ZmuYm-Em29mLAAki2HnM-58">
          <mxGeometry relative="1" as="geometry" />
        </mxCell>
        <mxCell id="ZmuYm-Em29mLAAki2HnM-82" value="1&lt;span style=&quot;white-space: pre;&quot;&gt;&#x9;&lt;/span&gt;&lt;span style=&quot;white-space: pre;&quot;&gt;&#x9;&lt;/span&gt;&lt;span style=&quot;white-space: pre;&quot;&gt;&#x9;&lt;/span&gt;*" style="edgeLabel;html=1;align=center;verticalAlign=middle;resizable=0;points=[];" vertex="1" connectable="0" parent="ZmuYm-Em29mLAAki2HnM-81">
          <mxGeometry x="0.0873" y="1" relative="1" as="geometry">
            <mxPoint x="5" y="-14" as="offset" />
          </mxGeometry>
        </mxCell>
        <mxCell id="ZmuYm-Em29mLAAki2HnM-87" style="edgeStyle=orthogonalEdgeStyle;rounded=0;orthogonalLoop=1;jettySize=auto;html=1;entryX=0.54;entryY=0.982;entryDx=0;entryDy=0;entryPerimeter=0;" edge="1" parent="1">
          <mxGeometry relative="1" as="geometry">
            <mxPoint x="1100" y="358" as="sourcePoint" />
            <mxPoint x="1296.4" y="250.45999999999998" as="targetPoint" />
            <Array as="points">
              <mxPoint x="1100" y="380" />
              <mxPoint x="1296" y="380" />
            </Array>
          </mxGeometry>
        </mxCell>
        <mxCell id="ZmuYm-Em29mLAAki2HnM-89" value="1&lt;span style=&quot;white-space: pre;&quot;&gt;&#x9;&lt;/span&gt;&lt;span style=&quot;white-space: pre;&quot;&gt;&#x9;&lt;/span&gt;&lt;span style=&quot;white-space: pre;&quot;&gt;&#x9;&lt;/span&gt;&lt;span style=&quot;white-space: pre;&quot;&gt;&#x9;&lt;/span&gt;&lt;span style=&quot;white-space: pre;&quot;&gt;&#x9;&lt;/span&gt;&lt;span style=&quot;white-space: pre;&quot;&gt;&#x9;&lt;/span&gt;&lt;span style=&quot;white-space: pre;&quot;&gt;&#x9;&lt;/span&gt;*" style="edgeLabel;html=1;align=center;verticalAlign=middle;resizable=0;points=[];" vertex="1" connectable="0" parent="ZmuYm-Em29mLAAki2HnM-87">
          <mxGeometry x="-0.4845" y="2" relative="1" as="geometry">
            <mxPoint x="30" y="-12" as="offset" />
          </mxGeometry>
        </mxCell>
      </root>
    </mxGraphModel>
  </diagram>
</mxfile>
